<svg width="24" height="24" viewBox="0 0 24 24" fill="black" xmlns="http://www.w3.org/2000/svg">
  <path d="M16.365 1.43c0 1.14-.47 2.246-1.24 3.053-.79.83-2.074 1.47-3.17 1.388-.137-1.1.402-2.269 1.164-3.07.8-.83 2.136-1.447 3.246-1.371zm3.385 17.31c-.61 1.426-1.351 2.853-2.432 2.872-1.064.02-1.405-.853-2.622-.853-1.216 0-1.594.834-2.643.873-1.064.039-1.874-1.28-2.49-2.7-1.354-3.077-2.385-8.7.994-9.069 1.028-.117 2.068.706 2.643.706.566 0 1.798-.869 3.08-.742.525.021 2.006.212 2.952 1.602-2.506 1.373-2.11 4.94.518 5.381z"/>
</svg>